<svg width="85" height="85" fill="none" xmlns="http://www.w3.org/2000/svg"><path d="M49.085 16.872a7.168 7.168 0 11-14.336.002 7.168 7.168 0 0114.336-.002zm23.393 46.763l-15.285-9.102.589-16.122c.451-8.521-7.722-8.273-7.722-8.273H34.942s-8.174-.248-7.723 8.273l.586 16.122-15.282 9.102" stroke="#FFF" stroke-width="2.5" stroke-linecap="round" stroke-linejoin="round"/><path d="M27.646 75.295h-6.342a4.512 4.512 0 01-4.499-4.5c0-2.477 1.209-3.707 4.165-5.52l13.133-7.312-.631-19.237m18.056 0l-.629 19.237 13.129 7.312c2.959 1.812 4.168 3.043 4.168 5.52 0 2.475-2.025 4.5-4.5 4.5h-27.35c-2.621 0-3.309-1.63-3.309-1.63-3.812-7.689 5.047-7.399 5.047-7.399H48.25" stroke="#FFF" stroke-width="2.5" stroke-linecap="round" stroke-linejoin="round"/></svg>