<svg width="85" height="85" fill="none" xmlns="http://www.w3.org/2000/svg"><path d="M53.814 41.538a5.582 5.582 0 001.176-.93c3.967-4.131 1.424-12.65-4.674-15.771-7.87-4.031-14.95-2.561-14.95-2.561s-.532 7.73 3.592 14.66c2.137 3.587 6.321 5.53 10.06 5.669" stroke="#FFF" stroke-width="2.5" stroke-miterlimit="10"/><path d="M44.518 29.706c3.365 2.899 9.615 9.774 12.539 19.292m5.457 23.719c-.506-2.953-1.238-7.754-.951-12.432 0 0 1.703-7.67 5.113-12.57 0 0 10.867-18.535-5.328-30.468 0 0-14.328-10.624-31.661-.791 0 0-9.667 4.184-7.623 17.565 0 0 .414 3.744-.77 5.49l-6.402 7.527s-.852 2.236 1.705 2.449l3.902.805s1.631 3.184 1.795 5.63c.164 2.45-.408 5.47-.408 5.47s-1.387 3.672.791 5.285c.428.105 2.027 1.92 13.426-.531 0 0 1.102.52 1.799 6.479M22.784 56.088l4.897.082" stroke="#FFF" stroke-width="2.5" stroke-miterlimit="10" stroke-linecap="round" stroke-linejoin="round"/></svg>