<svg width="85" height="85" fill="none" xmlns="http://www.w3.org/2000/svg"><path d="M64.844 40.741V27.765c-.014-2.153 1.389-3.927 3.328-3.939 1.936-.01 3.531 1.742 3.545 3.897V52.91L60.168 67.99s-1.252 1.459-.881 6.795" stroke="#FFF" stroke-width="2.5" stroke-miterlimit="10" stroke-linejoin="round"/><path d="M45.469 74.91l.014-11.703c0-4.547 5.303-7.625 5.303-7.625 2.4-1.609 5.133-4.41 5.133-4.41l4.525-4.906c1.865-2.02 4.559-2.6 5.984-1.285 1.428 1.312 1.068 4.041-.797 6.061l-6.361 6.891" stroke="#FFF" stroke-width="2.5" stroke-miterlimit="10"/><path d="M20.159 40.741l-.002-12.977c.014-2.153-1.389-3.927-3.328-3.939-1.936-.01-3.531 1.742-3.545 3.897l.002 25.188 11.547 15.08s1.252 1.459.881 6.795" stroke="#FFF" stroke-width="2.5" stroke-miterlimit="10" stroke-linejoin="round"/><path d="M39.532 74.91l-.014-11.703c0-4.547-5.303-7.625-5.303-7.625-2.4-1.609-5.131-4.41-5.131-4.41l-4.527-4.906c-1.863-2.02-4.557-2.6-5.984-1.285-1.426 1.312-1.066 4.041.799 6.061l6.361 6.891" stroke="#FFF" stroke-width="2.5" stroke-miterlimit="10"/><path d="M38.983 34.432c-1.071-2.543-1.975-5.708-1.975-9.138 0-8.398 5.42-15.205 5.42-15.205s5.42 6.807 5.42 15.205c0 8.395-5.42 15.201-5.42 15.201" stroke="#FFF" stroke-width="2.5" stroke-miterlimit="10" stroke-linecap="round" stroke-linejoin="round"/><path d="M31.64 20.367c-3.631-2.332-6.869-3.25-6.869-3.25s-.915 9.088 3.98 15.91c4.898 6.82 9.651 7.468 13.749 7.468 4.098 0 8.852-.647 13.75-7.469 4.896-6.82 3.98-15.909 3.98-15.909s-7.381 2.092-12.334 7.99" stroke="#FFF" stroke-width="2.5" stroke-miterlimit="10" stroke-linecap="round" stroke-linejoin="round"/></svg>